<?xml version="1.0" encoding="UTF-8" standalone="no"?>
<!-- Created with Inkscape (http://www.inkscape.org/) -->

<svg
   version="1.1"
   id="svg2"
   width="1002.6667"
   height="866.66669"
   viewBox="0 0 1002.6667 866.66669"
   sodipodi:docname="logoESColofon.svg"
   inkscape:version="1.1.2 (0a00cf5339, 2022-02-04)"
   xmlns:inkscape="http://www.inkscape.org/namespaces/inkscape"
   xmlns:sodipodi="http://sodipodi.sourceforge.net/DTD/sodipodi-0.dtd"
   xmlns="http://www.w3.org/2000/svg"
   xmlns:svg="http://www.w3.org/2000/svg">
  <defs
     id="defs6" />
  <sodipodi:namedview
     id="namedview4"
     pagecolor="#ffffff"
     bordercolor="#666666"
     borderopacity="1.0"
     inkscape:pageshadow="2"
     inkscape:pageopacity="0.0"
     inkscape:pagecheckerboard="0"
     showgrid="false"
     inkscape:zoom="0.5"
     inkscape:cx="502"
     inkscape:cy="434"
     inkscape:window-width="1920"
     inkscape:window-height="995"
     inkscape:window-x="0"
     inkscape:window-y="24"
     inkscape:window-maximized="1"
     inkscape:current-layer="g8" />
  <g
     inkscape:groupmode="layer"
     inkscape:label="Image"
     id="g8">
    <path
       style="fill:#808080;stroke-width:1.33333"
       d="M 25.737101,434.96754 V 42.300865 H 256.40377 487.07043 v 9.33333 9.33334 H 265.73711 44.403771 V 243.6342 426.30087 h 125.999999 126 v 8.66667 8.66667 h -126 H 44.403771 V 626.30088 808.96759 H 265.73711 487.07043 v 9.3333 9.3333 H 256.40377 25.737101 Z M 705.80913,824.77059 c -15.9725,-1.668 -39.9306,-7.2529 -54.7387,-12.7602 -52.8959,-19.6724 -99.9319,-61.533 -126.6322,-112.69887 -12.9831,-24.87964 -21.1492,-53.38203 -24.1649,-84.34397 -5.1524,-52.89985 9.9376,-93.56258 48.5809,-130.91025 16.4541,-15.90245 29.4102,-24.95722 49.2116,-34.39301 37.2181,-17.73523 68.9972,-23.90007 134.338,-26.06034 49.9573,-1.65166 75.4999,-5.44705 104.4317,-15.51753 52.8075,-18.38112 91.0932,-55.98569 105.7488,-103.86774 3.3455,-10.93024 3.6479,-13.74085 3.6493,-33.91781 0,-39.10123 -8.5443,-71.96116 -26.8597,-103.2649 -33.2873,-56.89306 -89.7076,-96.049825 -151.9486,-105.455135 -19.2442,-2.90801 -52.7148,-2.87155 -70.982,0.0773 -57.865,9.34115 -109.6689,43.305785 -144.2217,94.557315 -20.9822,31.12236 -32.173,65.67967 -34.0302,105.0854 l -0.8641,18.33333 h -9.1284 -9.1285 v -8.5254 c 0,-41.9058 13.3472,-87.82699 35.4031,-121.80483 36.6977,-56.533975 93.6443,-95.139055 155.7828,-105.607745 68.7591,-11.58408 134.9072,4.83717 186.1475,46.21108 14.4368,11.656985 37.9064,36.468305 48.3352,51.098465 36.6419,51.40318 50.8841,125.14606 33.5109,173.51124 -8.4408,23.49817 -23.3423,46.75065 -41.7769,65.18916 -18.4768,18.48076 -36.6683,30.6817 -60.2931,40.43837 -36.3238,15.00112 -64.9512,20.27202 -120.4428,22.17599 -41.8356,1.43541 -55.4614,2.70757 -78.7445,7.35189 -40.7738,8.13322 -73.0091,24.57714 -98.1314,50.0588 -20.555,20.84902 -33.5278,44.01067 -38.7717,69.22295 -4.8643,23.38759 -1.5241,62.69683 7.7555,91.271 5.1381,15.82138 17.9496,40.97843 28.2151,55.40411 11.1458,15.66271 34.4039,39.24191 50.3437,51.03871 22.2901,16.4966 54.1702,30.7625 80.8934,36.1984 41.7848,8.4999 89.5847,4.1866 127.6988,-11.5229 61.9722,-25.5433 113.0408,-85.69721 126.5318,-149.04261 3.1823,-14.94235 5.5426,-35.07655 5.5426,-47.28079 v -8.71921 h 9.3334 9.3333 v 10.05255 c 0,32.58972 -8.9383,70.61848 -23.3363,99.28668 -18.2607,36.35918 -50.5091,71.93478 -86.3335,95.24088 -41.9771,27.3089 -96.189,39.536 -150.2582,33.8896 z"
       id="path666"
       inkscape:export-filename="/home/fisinfor/Desktop/pautaEsLatex_v0.3_a/esIcons/logoESColofon.png"
       inkscape:export-xdpi="272.48599"
       inkscape:export-ydpi="272.48599" />
  </g>
</svg>
