<?xml version="1.0" encoding="UTF-8" standalone="no"?>
<!-- Created with Inkscape (http://www.inkscape.org/) -->

<svg
   version="1.1"
   id="svg2"
   width="1002.6667"
   height="866.66669"
   viewBox="0 0 1002.6667 866.66669"
   sodipodi:docname="logoESColofon_corner.svg"
   inkscape:version="1.1.2 (0a00cf5339, 2022-02-04)"
   xmlns:inkscape="http://www.inkscape.org/namespaces/inkscape"
   xmlns:sodipodi="http://sodipodi.sourceforge.net/DTD/sodipodi-0.dtd"
   xmlns="http://www.w3.org/2000/svg"
   xmlns:svg="http://www.w3.org/2000/svg">
  <defs
     id="defs6" />
  <sodipodi:namedview
     id="namedview4"
     pagecolor="#ffffff"
     bordercolor="#666666"
     borderopacity="1.0"
     inkscape:pageshadow="2"
     inkscape:pageopacity="0.0"
     inkscape:pagecheckerboard="0"
     showgrid="false"
     inkscape:zoom="0.5"
     inkscape:cx="502"
     inkscape:cy="432"
     inkscape:window-width="1920"
     inkscape:window-height="995"
     inkscape:window-x="0"
     inkscape:window-y="24"
     inkscape:window-maximized="1"
     inkscape:current-layer="g8" />
  <g
     inkscape:groupmode="layer"
     inkscape:label="Image"
     id="g8">
    <path
       style="fill:#b3b3b3;stroke-width:1.33333"
       d="M 32.363446,428.13344 V 35.466756 H 263.03012 493.69677 v 9.33334 9.33333 H 272.36346 51.030116 V 236.8001 419.46677 h 126.000004 126 v 8.66667 8.66667 h -126 H 51.030116 V 619.46678 802.13345 H 272.36346 493.69677 v 9.33336 9.3333 H 263.03012 32.363446 Z M 711.69677,818.00021 c -96.1127,-10.0185 -180.0404,-85.38943 -200.4848,-180.04455 -5.2334,-24.23005 -6.8348,-52.80828 -4.0722,-72.67075 7.1807,-51.62735 48.6847,-101.94492 103.8092,-125.85375 35.1532,-15.24677 65.3596,-20.64301 126.7478,-22.64297 62.3033,-2.02978 93.4203,-8.27571 130,-26.09407 46.0947,-22.45319 79.146,-66.02215 84.9512,-111.98424 1.7518,-13.86996 0.092,-39.83678 -3.7017,-57.90978 -9.3745,-44.6606 -35.536,-87.88591 -71.4174,-117.99971 -41.0713,-34.469384 -84.3992,-50.162084 -138.4987,-50.162084 -58.8963,0 -107.7923,19.73789 -149.4303,60.320704 -40.5253,39.49816 -62.2921,87.44039 -64.8532,142.84109 l -0.7858,17 h -9.1321 -9.132 v -9.19206 c 0,-77.03064 39.0054,-147.99092 106.0016,-192.842824 42.4791,-28.43846 93.3095,-41.22048 146.3318,-36.79718 72.0633,6.01177 130.5608,40.11998 174.808,101.925624 8.9523,12.50473 23.1619,40.708 28.2047,55.9807 11.2365,34.03106 14.3247,77.62168 7.4334,104.92574 -3.7733,14.9501 -17.7371,42.96471 -28.5777,57.33334 -27.5575,36.52589 -70.0175,62.38967 -120.3242,73.29343 -23.4798,5.08913 -39.1658,6.73256 -77.1083,8.07864 -49.1608,1.74407 -63.7974,3.38205 -90.7574,10.15661 -48.9864,12.30943 -86.2793,38.56744 -109.4836,77.08772 -17.9979,29.87736 -22.2246,65.46345 -13.0505,109.87786 14.442,69.91808 71.7504,133.67867 140.9452,156.81368 34.8386,11.64814 77.4965,13.90551 114.9553,6.08319 80.4914,-16.80863 147.5322,-84.05793 163.8745,-164.38407 2.566,-12.61243 4.693,-32.12652 4.7241,-43.34039 l 0.023,-8.33333 h 9.5383 9.5382 l -0.8136,18.33333 c -1.4738,33.21062 -7.8356,59.46488 -21.0817,87.00001 -30.7143,63.84682 -89.0928,112.04018 -155.1812,128.10709 -23.6427,5.7478 -57.8314,7.8207 -84,5.093 z"
       id="path145" />
  </g>
</svg>
