<?xml version="1.0" encoding="UTF-8" standalone="no"?>
<!-- Created with Inkscape (http://www.inkscape.org/) -->

<svg
   version="1.1"
   id="svg1"
   width="143.04724"
   height="145.42578"
   viewBox="0 0 143.04724 145.42579"
   sodipodi:docname="89.pdf"
   xmlns:inkscape="http://www.inkscape.org/namespaces/inkscape"
   xmlns:sodipodi="http://sodipodi.sourceforge.net/DTD/sodipodi-0.dtd"
   xmlns="http://www.w3.org/2000/svg"
   xmlns:svg="http://www.w3.org/2000/svg">
  <defs
     id="defs1">
    <clipPath
       clipPathUnits="userSpaceOnUse"
       id="clipPath1">
      <path
         d="M -34.357801,6.7511702 H 84.702202 V -109.46883 H -34.357801 Z"
         id="path1" />
    </clipPath>
    <clipPath
       clipPathUnits="userSpaceOnUse"
       id="clipPath2">
      <path
         d="m -17.352,18.628898 h 119.06 V -97.591105 h -119.06 z"
         id="path2" />
    </clipPath>
  </defs>
  <sodipodi:namedview
     id="namedview1"
     pagecolor="#ffffff"
     bordercolor="#000000"
     borderopacity="0.25"
     inkscape:showpageshadow="2"
     inkscape:pageopacity="0.0"
     inkscape:pagecheckerboard="0"
     inkscape:deskcolor="#d1d1d1">
    <inkscape:page
       x="8.3673896e-10"
       y="9.1325225e-10"
       inkscape:label="1"
       id="page1"
       width="143.04724"
       height="145.42578"
       margin="0"
       bleed="0" />
  </sodipodi:namedview>
  <g
     id="g1"
     inkscape:groupmode="layer"
     inkscape:label="1"
     transform="translate(-0.19885315,0.02733749)">
    <g
       id="g49">
      <g
         aria-label="x&#10;2&#10;+y&#10;2&#10;=2x&#10;x&#10;2&#10;+y&#10;2&#10;=4"
         transform="matrix(1.3333333,0,0,1.3333333,38.4504,142.67844)"
         clip-path="url(#clipPath1)"
         id="g14">
        <path
           d="m 3.3272391,-3.0107831 c 0.058594,-0.2578125 0.2929687,-1.171875 0.984375,-1.171875 0.046875,0 0.2929687,0 0.5039062,0.1289062 -0.28125,0.046875 -0.4804687,0.3046875 -0.4804687,0.5390625 0,0.1640625 0.1054687,0.3515625 0.375,0.3515625 0.2226562,0 0.5390625,-0.1875 0.5390625,-0.5859375 0,-0.515625 -0.5859375,-0.65625 -0.9257813,-0.65625 -0.5742187,0 -0.9257812,0.5273438 -1.0429687,0.7617188 -0.2578125,-0.65625 -0.7851563,-0.7617188 -1.078125,-0.7617188 -1.0429688,0 -1.60546879,1.2890625 -1.60546879,1.5351563 0,0.1054687 0.10546875,0.1054687 0.1171875,0.1054687 0.0820313,0 0.1171875,-0.023437 0.12890625,-0.1171875 0.33984374,-1.0546875 0.99609374,-1.3007812 1.33593754,-1.3007812 0.1875,0 0.5390625,0.09375 0.5390625,0.6679687 0,0.3046875 -0.1640625,0.9726563 -0.5390625,2.3671875 -0.1523438,0.62109378 -0.5039063,1.04296878 -0.9492188,1.04296878 -0.058594,0 -0.28124999,0 -0.49218749,-0.12890625 0.24609375,-0.0585937 0.46874999,-0.26953125 0.46874999,-0.5390625 0,-0.26953123 -0.22265624,-0.35156253 -0.37499999,-0.35156253 -0.29296875,0 -0.5390625,0.25781253 -0.5390625,0.57421878 0,0.45703125 0.4921875,0.65625 0.93749999,0.65625 0.65625,0 1.0078125,-0.69140625 1.0429688,-0.75 0.1171875,0.36328125 0.4804687,0.75 1.078125,0.75 1.0195312,0 1.59375,-1.27734378 1.59375,-1.53515628 0,-0.09375 -0.09375,-0.09375 -0.1289063,-0.09375 -0.082031,0 -0.1054687,0.035156 -0.1289062,0.1054688 -0.328125,1.06640623 -0.9960938,1.31249998 -1.3242188,1.31249998 -0.3867187,0 -0.5390625,-0.328125 -0.5390625,-0.65625 0,-0.22265625 0.058594,-0.44531248 0.1640625,-0.87890628 z m 0,0"
           style="fill:#000000;fill-opacity:1;fill-rule:nonzero;stroke:none"
           id="path3" />
        <path
           d="m 9.2100516,-4.8828534 h -0.234375 c -0.023437,0.1523437 -0.082031,0.5625 -0.1757813,0.6328125 -0.058594,0.035156 -0.5976562,0.035156 -0.6914062,0.035156 H 6.8194266 c 0.7382812,-0.6445312 0.984375,-0.84375 1.3945312,-1.171875 0.515625,-0.4101562 0.9960938,-0.84375 0.9960938,-1.5 0,-0.84375 -0.7382813,-1.359375 -1.6289063,-1.359375 -0.8671875,0 -1.453125,0.609375 -1.453125,1.2421875 0,0.3632813 0.3046875,0.3984375 0.375,0.3984375 0.1640625,0 0.375,-0.1171875 0.375,-0.375 0,-0.1289062 -0.058594,-0.3632812 -0.421875,-0.3632812 0.2226563,-0.5039063 0.6914063,-0.65625 1.0195313,-0.65625 0.703125,0 1.0664062,0.5507812 1.0664062,1.1132812 0,0.609375 -0.4335937,1.0898438 -0.65625,1.3359375 l -1.6875,1.6640625 c -0.070312,0.058594 -0.070312,0.070312 -0.070312,0.2695313 h 2.8828125 z m 0,0"
           style="fill:#000000;fill-opacity:1;fill-rule:nonzero;stroke:none"
           id="path4" />
        <path
           d="m 16.455169,-2.2959394 h 2.777344 c 0.140625,0 0.328125,0 0.328125,-0.1992187 0,-0.1992188 -0.1875,-0.1992188 -0.328125,-0.1992188 h -2.777344 v -2.7890625 c 0,-0.1289062 0,-0.328125 -0.199219,-0.328125 -0.199219,0 -0.199219,0.1992188 -0.199219,0.328125 v 2.7890625 h -2.789062 c -0.140625,0 -0.328125,0 -0.328125,0.1992188 0,0.1992187 0.1875,0.1992187 0.328125,0.1992187 h 2.789062 v 2.80078128 c 0,0.12890625 0,0.328125 0.199219,0.328125 0.199219,0 0.199219,-0.19921875 0.199219,-0.328125 z m 0,0"
           style="fill:#000000;fill-opacity:1;fill-rule:nonzero;stroke:none"
           id="path5" />
        <path
           d="m 27.177825,-3.7959394 c 0.04687,-0.140625 0.04687,-0.1523437 0.04687,-0.2226562 0,-0.1875 -0.140625,-0.2695313 -0.292969,-0.2695313 -0.105468,0 -0.257812,0.058594 -0.351562,0.1992188 -0.02344,0.058594 -0.09375,0.3632812 -0.140625,0.5390625 -0.07031,0.2578125 -0.140625,0.5273437 -0.199219,0.796875 l -0.445312,1.79296873 c -0.03516,0.15234375 -0.46875,0.85546875 -1.125,0.85546875 -0.503907,0 -0.621094,-0.4453125 -0.621094,-0.80859375 0,-0.45703123 0.175781,-1.07812503 0.515625,-1.95703123 0.152344,-0.4101563 0.199219,-0.515625 0.199219,-0.7148438 0,-0.4453125 -0.328125,-0.8203125 -0.820313,-0.8203125 -0.949219,0 -1.3125,1.453125 -1.3125,1.5351563 0,0.1054687 0.09375,0.1054687 0.117188,0.1054687 0.09375,0 0.105468,-0.023437 0.152343,-0.1875 0.269532,-0.9375 0.667969,-1.2304687 1.007813,-1.2304687 0.08203,0 0.257812,0 0.257812,0.3164062 0,0.2460938 -0.105468,0.515625 -0.175781,0.703125 -0.398437,1.0546875 -0.574219,1.6171875 -0.574219,2.0859375 0,0.89062503 0.621094,1.18359378 1.21875,1.18359378 0.386719,0 0.726563,-0.1640625 0.996094,-0.4453125 -0.128906,0.515625 -0.246094,1.0078125 -0.644531,1.53515622 -0.257813,0.3398438 -0.632813,0.6328125 -1.089844,0.6328125 -0.140625,0 -0.597656,-0.035156 -0.761719,-0.421875 0.164063,0 0.292969,0 0.433594,-0.1171875 0.09375,-0.09375 0.199219,-0.2226562 0.199219,-0.41015622 0,-0.31640625 -0.269531,-0.3515625 -0.375,-0.3515625 -0.222656,0 -0.550781,0.1640625 -0.550781,0.64453122 0,0.5039063 0.433593,0.8671875 1.054687,0.8671875 1.019531,0 2.050781,-0.9023437 2.332031,-2.02734372 z m 0,0"
           style="fill:#000000;fill-opacity:1;fill-rule:nonzero;stroke:none"
           id="path6" />
        <path
           d="m 31.097747,-4.8828534 h -0.234375 c -0.02344,0.1523437 -0.08203,0.5625 -0.175781,0.6328125 -0.05859,0.035156 -0.597657,0.035156 -0.691407,0.035156 h -1.289062 c 0.738281,-0.6445312 0.984375,-0.84375 1.394531,-1.171875 0.515625,-0.4101562 0.996094,-0.84375 0.996094,-1.5 0,-0.84375 -0.738281,-1.359375 -1.628906,-1.359375 -0.867188,0 -1.453125,0.609375 -1.453125,1.2421875 0,0.3632813 0.304687,0.3984375 0.375,0.3984375 0.164062,0 0.375,-0.1171875 0.375,-0.375 0,-0.1289062 -0.05859,-0.3632812 -0.421875,-0.3632812 0.222656,-0.5039063 0.691406,-0.65625 1.019531,-0.65625 0.703125,0 1.066406,0.5507812 1.066406,1.1132812 0,0.609375 -0.433594,1.0898438 -0.65625,1.3359375 l -1.6875,1.6640625 c -0.07031,0.058594 -0.07031,0.070312 -0.07031,0.2695313 h 2.882812 z m 0,0"
           style="fill:#000000;fill-opacity:1;fill-rule:nonzero;stroke:none"
           id="path7" />
        <path
           d="m 41.6622,-3.2568769 c 0.152344,0 0.339844,0 0.339844,-0.1992187 0,-0.1992188 -0.1875,-0.1992188 -0.328125,-0.1992188 h -5.964844 c -0.140625,0 -0.328125,0 -0.328125,0.1992188 0,0.1992187 0.1875,0.1992187 0.339844,0.1992187 z m 0.01172,1.9335938 c 0.140625,0 0.328125,0 0.328125,-0.1992188 0,-0.1992187 -0.1875,-0.1992187 -0.339844,-0.1992187 h -5.941406 c -0.152344,0 -0.339844,0 -0.339844,0.1992187 0,0.1992188 0.1875,0.1992188 0.328125,0.1992188 z m 4.918945,0.56249998 1.054688,-1.03124998 c 1.558593,-1.3710938 2.15625,-1.9101563 2.15625,-2.90625 0,-1.1367188 -0.902344,-1.9335938 -2.121094,-1.9335938 -1.125,0 -1.851563,0.9140625 -1.851563,1.8046875 0,0.5507813 0.492188,0.5507813 0.527344,0.5507813 0.164063,0 0.515625,-0.1171875 0.515625,-0.5273438 0,-0.2578125 -0.1875,-0.515625 -0.527344,-0.515625 -0.08203,0 -0.105468,0 -0.128906,0.011719 0.222656,-0.6445313 0.761719,-1.0195313 1.335938,-1.0195313 0.914062,0 1.335937,0.8085938 1.335937,1.6289063 0,0.796875 -0.492187,1.5820312 -1.042969,2.203125 l -1.910156,2.13281248 c -0.105469,0.10546875 -0.105469,0.12890625 -0.105469,0.363281245 h 3.691407 L 49.803803,-1.7334392 H 49.54599 c -0.04687,0.3046875 -0.117187,0.73828128 -0.210937,0.89062503 -0.07031,0.0820313 -0.726563,0.0820313 -0.949219,0.0820313 z m 0,0"
           style="fill:#000000;fill-opacity:1;fill-rule:nonzero;stroke:none"
           id="path8" />
        <path
           d="m 53.641692,-3.0107831 c 0.05859,-0.2578125 0.292969,-1.171875 0.984375,-1.171875 0.04687,0 0.292969,0 0.503906,0.1289062 -0.28125,0.046875 -0.480468,0.3046875 -0.480468,0.5390625 0,0.1640625 0.105468,0.3515625 0.375,0.3515625 0.222656,0 0.539062,-0.1875 0.539062,-0.5859375 0,-0.515625 -0.585937,-0.65625 -0.925781,-0.65625 -0.574219,0 -0.925781,0.5273438 -1.042969,0.7617188 -0.257812,-0.65625 -0.785156,-0.7617188 -1.078125,-0.7617188 -1.042969,0 -1.605469,1.2890625 -1.605469,1.5351563 0,0.1054687 0.105469,0.1054687 0.117188,0.1054687 0.08203,0 0.117187,-0.023437 0.128906,-0.1171875 0.339844,-1.0546875 0.996094,-1.3007812 1.335938,-1.3007812 0.1875,0 0.539062,0.09375 0.539062,0.6679687 0,0.3046875 -0.164062,0.9726563 -0.539062,2.3671875 -0.152344,0.62109378 -0.503907,1.04296878 -0.949219,1.04296878 -0.05859,0 -0.28125,0 -0.492188,-0.12890625 0.246094,-0.0585937 0.46875,-0.26953125 0.46875,-0.5390625 0,-0.26953123 -0.222656,-0.35156253 -0.375,-0.35156253 -0.292968,0 -0.539062,0.25781253 -0.539062,0.57421878 0,0.45703125 0.492187,0.65625 0.9375,0.65625 0.65625,0 1.007812,-0.69140625 1.042969,-0.75 0.117187,0.36328125 0.480468,0.75 1.078125,0.75 1.019531,0 1.59375,-1.27734378 1.59375,-1.53515628 0,-0.09375 -0.09375,-0.09375 -0.128907,-0.09375 -0.08203,0 -0.105468,0.035156 -0.128906,0.1054688 -0.328125,1.06640623 -0.996094,1.31249998 -1.324219,1.31249998 -0.386718,0 -0.539062,-0.328125 -0.539062,-0.65625 0,-0.22265625 0.05859,-0.44531248 0.164062,-0.87890628 z M 20.348723,-88.050822 c 0.05859,-0.257813 0.292969,-1.171875 0.984375,-1.171875 0.04687,0 0.292969,0 0.503907,0.128906 -0.28125,0.04687 -0.480469,0.304688 -0.480469,0.539063 0,0.164062 0.105469,0.351562 0.375,0.351562 0.222656,0 0.539062,-0.1875 0.539062,-0.585937 0,-0.515625 -0.585937,-0.65625 -0.925781,-0.65625 -0.574219,0 -0.925781,0.527343 -1.042969,0.761718 -0.257812,-0.65625 -0.785156,-0.761718 -1.078125,-0.761718 -1.042968,0 -1.605468,1.289062 -1.605468,1.535156 0,0.105469 0.105468,0.105469 0.117187,0.105469 0.08203,0 0.117188,-0.02344 0.128906,-0.117188 0.339844,-1.054687 0.996094,-1.300781 1.335938,-1.300781 0.1875,0 0.539062,0.09375 0.539062,0.667969 0,0.304687 -0.164062,0.972656 -0.539062,2.367187 -0.152344,0.621094 -0.503906,1.042969 -0.949219,1.042969 -0.05859,0 -0.28125,0 -0.492187,-0.128906 0.246093,-0.05859 0.46875,-0.269532 0.46875,-0.539063 0,-0.269531 -0.222657,-0.351562 -0.375,-0.351562 -0.292969,0 -0.539063,0.257812 -0.539063,0.574218 0,0.457032 0.492188,0.65625 0.9375,0.65625 0.65625,0 1.007813,-0.691406 1.042969,-0.75 0.117187,0.363282 0.480469,0.75 1.078125,0.75 1.019531,0 1.59375,-1.277343 1.59375,-1.535156 0,-0.09375 -0.09375,-0.09375 -0.128906,-0.09375 -0.08203,0 -0.105469,0.03516 -0.128907,0.105469 -0.328125,1.066406 -0.996093,1.3125 -1.324218,1.3125 -0.386719,0 -0.539063,-0.328125 -0.539063,-0.65625 0,-0.222656 0.05859,-0.445313 0.164063,-0.878906 z m 0,0"
           style="fill:#000000;fill-opacity:1;fill-rule:nonzero;stroke:none"
           id="path9" />
        <path
           d="m 26.228606,-89.919963 h -0.234375 c -0.02344,0.152344 -0.08203,0.5625 -0.175781,0.632813 -0.05859,0.03516 -0.597656,0.03516 -0.691406,0.03516 h -1.289063 c 0.738282,-0.644531 0.984375,-0.84375 1.394532,-1.171875 0.515625,-0.410156 0.996093,-0.84375 0.996093,-1.5 0,-0.84375 -0.738281,-1.359375 -1.628906,-1.359375 -0.867187,0 -1.453125,0.609375 -1.453125,1.242187 0,0.363282 0.304688,0.398438 0.375,0.398438 0.164063,0 0.375,-0.117188 0.375,-0.375 0,-0.128906 -0.05859,-0.363281 -0.421875,-0.363281 0.222656,-0.503907 0.691406,-0.65625 1.019531,-0.65625 0.703125,0 1.066407,0.550781 1.066407,1.113281 0,0.609375 -0.433594,1.089844 -0.65625,1.335937 l -1.6875,1.664063 c -0.07031,0.05859 -0.07031,0.07031 -0.07031,0.269531 h 2.882813 z m 0,0"
           style="fill:#000000;fill-opacity:1;fill-rule:nonzero;stroke:none"
           id="path10" />
        <path
           d="m 33.476653,-87.335978 h 2.777344 c 0.140625,0 0.328125,0 0.328125,-0.199219 0,-0.199219 -0.1875,-0.199219 -0.328125,-0.199219 h -2.777344 v -2.789062 c 0,-0.128907 0,-0.328125 -0.199219,-0.328125 -0.199218,0 -0.199218,0.199218 -0.199218,0.328125 v 2.789062 h -2.789063 c -0.140625,0 -0.328125,0 -0.328125,0.199219 0,0.199219 0.1875,0.199219 0.328125,0.199219 h 2.789063 v 2.800781 c 0,0.128906 0,0.328125 0.199218,0.328125 0.199219,0 0.199219,-0.199219 0.199219,-0.328125 z m 0,0"
           style="fill:#000000;fill-opacity:1;fill-rule:nonzero;stroke:none"
           id="path11" />
        <path
           d="m 44.199309,-88.835978 c 0.04687,-0.140625 0.04687,-0.152344 0.04687,-0.222657 0,-0.1875 -0.140625,-0.269531 -0.292968,-0.269531 -0.105469,0 -0.257813,0.05859 -0.351563,0.199219 -0.02344,0.05859 -0.09375,0.363281 -0.140625,0.539062 -0.07031,0.257813 -0.140625,0.527344 -0.199219,0.796875 l -0.445312,1.792969 c -0.03516,0.152344 -0.46875,0.855469 -1.125,0.855469 -0.503906,0 -0.621094,-0.445313 -0.621094,-0.808594 0,-0.457031 0.175781,-1.078125 0.515625,-1.957031 0.152344,-0.410156 0.199219,-0.515625 0.199219,-0.714844 0,-0.445312 -0.328125,-0.820312 -0.820313,-0.820312 -0.949218,0 -1.3125,1.453125 -1.3125,1.535156 0,0.105469 0.09375,0.105469 0.117188,0.105469 0.09375,0 0.105469,-0.02344 0.152344,-0.1875 0.269531,-0.9375 0.667968,-1.230469 1.007812,-1.230469 0.08203,0 0.257813,0 0.257813,0.316406 0,0.246094 -0.105469,0.515625 -0.175782,0.703125 -0.398437,1.054688 -0.574218,1.617188 -0.574218,2.085938 0,0.890625 0.621093,1.183593 1.21875,1.183593 0.386718,0 0.726562,-0.164062 0.996093,-0.445312 -0.128906,0.515625 -0.246093,1.007812 -0.644531,1.535156 -0.257812,0.339844 -0.632812,0.632813 -1.089844,0.632813 -0.140625,0 -0.597656,-0.03516 -0.761718,-0.421875 0.164062,0 0.292968,0 0.433593,-0.117188 0.09375,-0.09375 0.199219,-0.222656 0.199219,-0.410156 0,-0.316406 -0.269531,-0.351563 -0.375,-0.351563 -0.222656,0 -0.550781,0.164063 -0.550781,0.644532 0,0.503906 0.433594,0.867187 1.054687,0.867187 1.019532,0 2.050782,-0.902344 2.332032,-2.027344 z m 0,0"
           style="fill:#000000;fill-opacity:1;fill-rule:nonzero;stroke:none"
           id="path12" />
        <path
           d="m 48.116302,-89.919963 h -0.234375 c -0.02344,0.152344 -0.08203,0.5625 -0.175782,0.632813 -0.05859,0.03516 -0.597656,0.03516 -0.691406,0.03516 h -1.289062 c 0.738281,-0.644531 0.984375,-0.84375 1.394531,-1.171875 0.515625,-0.410156 0.996094,-0.84375 0.996094,-1.5 0,-0.84375 -0.738282,-1.359375 -1.628907,-1.359375 -0.867187,0 -1.453125,0.609375 -1.453125,1.242187 0,0.363282 0.304688,0.398438 0.375,0.398438 0.164063,0 0.375,-0.117188 0.375,-0.375 0,-0.128906 -0.05859,-0.363281 -0.421875,-0.363281 0.222657,-0.503907 0.691407,-0.65625 1.019532,-0.65625 0.703125,0 1.066406,0.550781 1.066406,1.113281 0,0.609375 -0.433594,1.089844 -0.65625,1.335937 l -1.6875,1.664063 c -0.07031,0.05859 -0.07031,0.07031 -0.07031,0.269531 h 2.882813 z m 0,0"
           style="fill:#000000;fill-opacity:1;fill-rule:nonzero;stroke:none"
           id="path13" />
        <path
           d="m 58.680755,-88.296916 c 0.152343,0 0.339843,0 0.339843,-0.199219 0,-0.199218 -0.1875,-0.199218 -0.328125,-0.199218 H 52.72763 c -0.140625,0 -0.328125,0 -0.328125,0.199218 0,0.199219 0.1875,0.199219 0.339843,0.199219 z m 0.01172,1.933594 c 0.140625,0 0.328125,0 0.328125,-0.199219 0,-0.199219 -0.1875,-0.199219 -0.339843,-0.199219 H 52.73935 c -0.152343,0 -0.339843,0 -0.339843,0.199219 0,0.199219 0.1875,0.199219 0.328125,0.199219 z m 6.583008,-0.316406 v 0.867187 c 0,0.351563 -0.02344,0.46875 -0.761718,0.46875 h -0.210938 v 0.304688 c 0.410156,-0.03516 0.9375,-0.03516 1.347656,-0.03516 0.421875,0 0.949219,0 1.359375,0.03516 v -0.304688 h -0.210937 c -0.738281,0 -0.761719,-0.117187 -0.761719,-0.46875 v -0.867187 h 0.996094 v -0.316407 H 66.0372 v -4.523437 c 0,-0.199219 0,-0.257813 -0.152344,-0.257813 -0.09375,0 -0.117187,0 -0.199218,0.117188 l -3.058594,4.664062 v 0.316407 z m 0.05859,-0.316407 h -2.425781 l 2.425781,-3.714843 z m 0,0"
           style="fill:#000000;fill-opacity:1;fill-rule:nonzero;stroke:none"
           id="path14" />
      </g>
      <path
         d="m 198.426,340.609 0.609,18.149 1.774,18.078 2.925,17.922 4.067,17.703 5.191,17.402 6.297,17.035 7.375,16.598 8.422,16.09 9.434,15.519 10.41,14.883 11.343,14.184 12.227,13.43 13.059,12.621 13.843,11.754 14.567,10.847 15.234,9.891 15.832,8.894 16.371,7.864 16.844,6.8 17.242,5.707 17.571,4.59 17.828,3.457 18.015,2.305 18.125,1.148 18.164,-0.011 18.121,-1.18 18.012,-2.336 17.824,-3.484 17.567,-4.617 17.23,-5.735 16.832,-6.824 16.36,-7.891 15.816,-8.922 15.219,-9.914 14.547,-10.871 13.824,-11.777 13.043,-12.641 12.207,-13.449 11.316,-14.203 10.387,-14.898 9.41,-15.536 8.399,-16.101 7.347,-16.61 6.27,-17.046 5.164,-17.411 4.039,-17.707 2.898,-17.929 1.743,-18.078 0.582,-18.153 v 0 l -0.293,18.16 -0.871,18.145 -1.454,18.105 -2.035,18.051 -2.609,17.977 -3.184,17.883 -3.754,17.769 -4.324,17.645 -4.887,17.492 -5.445,17.328 -5.996,17.148 -6.539,16.946 -7.082,16.726 -7.617,16.489 -8.137,16.238 -8.656,15.972 -9.16,15.684 -9.661,15.383 -10.148,15.062 -10.625,14.735 -11.09,14.383 -11.547,14.023 -11.988,13.645 -12.422,13.253 -12.836,12.848 -13.246,12.434 -13.637,12 -14.011,11.558 -14.375,11.102 -14.723,10.637 -15.059,10.16 -15.375,9.672 -15.675,9.171 -15.965,8.668 -16.231,8.153 -16.484,7.625 -16.723,7.097 -16.937,6.555 -17.145,6.012 -17.324,5.457 -17.488,4.898 -17.641,4.336 -17.765,3.77 -17.883,3.199 -17.973,2.625 -18.047,2.047 -18.105,1.469 -18.145,0.886 -18.16,0.305 v 0 h -0.449 V 340.156"
         style="fill:#d9d9d9;fill-opacity:1;fill-rule:nonzero;stroke:none"
         transform="matrix(0.13333333,0,0,-0.13333333,-7.36,151.68)"
         id="path15" />
      <path
         d="M 166.621,922.531 125.379,902.359 170.07,891.84 151.16,905.254"
         style="fill:#4d4d4d;fill-opacity:1;fill-rule:nonzero;stroke:none"
         transform="matrix(0.13333333,0,0,-0.13333333,-7.36,151.68)"
         id="path16" />
      <path
         d="m 765.352,340.156 -0.344,19.664 -1.024,19.641 -1.703,19.598 -2.383,19.519 -3.054,19.43 -3.731,19.312 -4.398,19.168 -5.063,19.008 -5.714,18.817 -6.368,18.609 -7.004,18.379 -7.64,18.121 -8.266,17.848 -8.879,17.55 -9.484,17.231 -10.07,16.894 -10.657,16.532 -11.218,16.152 -11.778,15.754 -12.312,15.336 -12.84,14.898 -13.348,14.446 -13.84,13.976 -14.316,13.484 -14.777,12.981 -15.215,12.461 -15.641,11.922 -16.047,11.375 -16.429,10.812 -16.793,10.239 -17.141,9.644 -17.465,9.047 -17.765,8.434 -18.051,7.816 -18.309,7.18 -18.547,6.546 -18.765,5.895 -18.953,5.242 -19.129,4.582 -19.274,3.914 -19.398,3.242 -19.5,2.571 -19.578,1.89 -19.629,1.211 -19.66,0.532 -19.668,-0.157 -19.653,-0.832 -19.609,-1.515 6.238,0.699"
         style="fill:none;stroke:#4d4d4d;stroke-width:7.97008;stroke-linecap:butt;stroke-linejoin:round;stroke-miterlimit:10;stroke-dasharray:none;stroke-opacity:1"
         transform="matrix(0.13333333,0,0,-0.13333333,-7.36,151.68)"
         id="path17" />
      <path
         d="m 254.5,143.941 42.102,-18.312 -20.977,40.84 2.055,-23.094"
         style="fill:#4d4d4d;fill-opacity:1;fill-rule:nonzero;stroke:none"
         transform="matrix(0.13333333,0,0,-0.13333333,-7.36,151.68)"
         id="path18" />
      <path
         d="m 765.352,340.156 -0.946,23.114 -2.824,22.96 -4.687,22.653 -6.524,22.195 -8.305,21.594 -10.043,20.84 -11.707,19.953 -13.293,18.93 -14.796,17.785 -16.196,16.519 -17.488,15.141 -18.664,13.668 -19.719,12.097 -20.637,10.454 -21.421,8.734 -22.063,6.957 -22.555,5.133 -22.902,3.281 -23.09,1.402 -23.129,-0.488 -23.011,-2.371 -22.743,-4.238 -22.32,-6.082 -21.75,-7.879 -21.035,-9.625 -20.18,-11.313 -19.187,-12.918 -18.074,-14.437 -16.836,-15.867 -15.489,-17.184 -14.031,-18.394 -12.488,-19.473 -10.856,-20.426 -9.156,-21.246 -7.391,-21.922 -5.582,-22.449 -3.73,-22.828 -1.859,-23.063 0.031,-23.133 1.914,-23.054 3.789,-22.821 5.637,-22.433 7.449,-21.902 9.207,-21.223 10.91,-20.399 12.535,-19.441 14.082,-18.355 15.528,-17.149 -2.047,1.922"
         style="fill:none;stroke:#4d4d4d;stroke-width:7.97008;stroke-linecap:butt;stroke-linejoin:round;stroke-miterlimit:10;stroke-dasharray:none;stroke-opacity:1"
         transform="matrix(0.13333333,0,0,-0.13333333,-7.36,151.68)"
         id="path19" />
      <path
         d="m 1062.27,324.715 43.23,15.441 -43.23,15.442 17.29,-15.442"
         style="fill:#000000;fill-opacity:1;fill-rule:nonzero;stroke:none"
         transform="matrix(0.13333333,0,0,-0.13333333,-7.36,151.68)"
         id="path20" />
      <path
         d="M 56.6914,340.156 H 1079.56"
         style="fill:none;stroke:#000000;stroke-width:7.97008;stroke-linecap:butt;stroke-linejoin:round;stroke-miterlimit:10;stroke-dasharray:none;stroke-opacity:1"
         transform="matrix(0.13333333,0,0,-0.13333333,-7.36,151.68)"
         id="path21" />
      <path
         d="m 198.426,300.305 v 79.703"
         style="fill:none;stroke:#000000;stroke-width:3.98504;stroke-linecap:butt;stroke-linejoin:round;stroke-miterlimit:10;stroke-dasharray:none;stroke-opacity:1"
         transform="matrix(0.13333333,0,0,-0.13333333,-7.36,151.68)"
         id="path22" />
      <path
         d="m 765.352,300.305 v 79.703"
         style="fill:none;stroke:#000000;stroke-width:3.98504;stroke-linecap:butt;stroke-linejoin:round;stroke-miterlimit:10;stroke-dasharray:none;stroke-opacity:1"
         transform="matrix(0.13333333,0,0,-0.13333333,-7.36,151.68)"
         id="path23" />
      <path
         d="m 198.426,300.305 v 79.703"
         style="fill:none;stroke:#000000;stroke-width:3.98504;stroke-linecap:butt;stroke-linejoin:round;stroke-miterlimit:10;stroke-dasharray:none;stroke-opacity:1"
         transform="matrix(0.13333333,0,0,-0.13333333,-7.36,151.68)"
         id="path24" />
      <path
         d="m 213.867,1062.27 -15.441,43.24 -15.446,-43.24 15.446,17.29"
         style="fill:#000000;fill-opacity:1;fill-rule:nonzero;stroke:none"
         transform="matrix(0.13333333,0,0,-0.13333333,-7.36,151.68)"
         id="path25" />
      <path
         d="M 198.426,56.6914 V 1079.56"
         style="fill:none;stroke:#000000;stroke-width:7.97008;stroke-linecap:butt;stroke-linejoin:round;stroke-miterlimit:10;stroke-dasharray:none;stroke-opacity:1"
         transform="matrix(0.13333333,0,0,-0.13333333,-7.36,151.68)"
         id="path26" />
      <path
         d="m 1062.27,324.715 43.23,15.441 -43.23,15.442 17.29,-15.442"
         style="fill:#000000;fill-opacity:1;fill-rule:nonzero;stroke:none"
         transform="matrix(0.13333333,0,0,-0.13333333,-7.36,151.68)"
         id="path27" />
      <path
         d="M 56.6914,340.156 H 1079.56"
         style="fill:none;stroke:#000000;stroke-width:7.97008;stroke-linecap:butt;stroke-linejoin:round;stroke-miterlimit:10;stroke-dasharray:none;stroke-opacity:1"
         transform="matrix(0.13333333,0,0,-0.13333333,-7.36,151.68)"
         id="path28" />
      <path
         d="m 213.867,1062.27 -15.441,43.24 -15.446,-43.24 15.446,17.29"
         style="fill:#000000;fill-opacity:1;fill-rule:nonzero;stroke:none"
         transform="matrix(0.13333333,0,0,-0.13333333,-7.36,151.68)"
         id="path29" />
      <path
         d="M 198.426,56.6914 V 1079.56"
         style="fill:none;stroke:#000000;stroke-width:7.97008;stroke-linecap:butt;stroke-linejoin:round;stroke-miterlimit:10;stroke-dasharray:none;stroke-opacity:1"
         transform="matrix(0.13333333,0,0,-0.13333333,-7.36,151.68)"
         id="path30" />
      <path
         d="m 158.574,340.156 h 79.699"
         style="fill:none;stroke:#000000;stroke-width:3.98504;stroke-linecap:butt;stroke-linejoin:round;stroke-miterlimit:10;stroke-dasharray:none;stroke-opacity:1"
         transform="matrix(0.13333333,0,0,-0.13333333,-7.36,151.68)"
         id="path31" />
      <path
         d="m 158.574,907.082 h 79.699"
         style="fill:none;stroke:#000000;stroke-width:3.98504;stroke-linecap:butt;stroke-linejoin:round;stroke-miterlimit:10;stroke-dasharray:none;stroke-opacity:1"
         transform="matrix(0.13333333,0,0,-0.13333333,-7.36,151.68)"
         id="path32" />
      <path
         d="m 158.574,340.156 h 79.699"
         style="fill:none;stroke:#000000;stroke-width:3.98504;stroke-linecap:butt;stroke-linejoin:round;stroke-miterlimit:10;stroke-dasharray:none;stroke-opacity:1"
         transform="matrix(0.13333333,0,0,-0.13333333,-7.36,151.68)"
         id="path33" />
      <path
         d="m 213.867,1062.27 -15.441,43.24 -15.446,-43.24 15.446,17.29"
         style="fill:#000000;fill-opacity:1;fill-rule:nonzero;stroke:none"
         transform="matrix(0.13333333,0,0,-0.13333333,-7.36,151.68)"
         id="path34" />
      <path
         d="M 198.426,56.6914 V 1079.56"
         style="fill:none;stroke:#000000;stroke-width:7.97008;stroke-linecap:butt;stroke-linejoin:round;stroke-miterlimit:10;stroke-dasharray:none;stroke-opacity:1"
         transform="matrix(0.13333333,0,0,-0.13333333,-7.36,151.68)"
         id="path35" />
      <path
         d="m 1062.27,324.715 43.23,15.441 -43.23,15.442 17.29,-15.442"
         style="fill:#000000;fill-opacity:1;fill-rule:nonzero;stroke:none"
         transform="matrix(0.13333333,0,0,-0.13333333,-7.36,151.68)"
         id="path36" />
      <path
         d="M 56.6914,340.156 H 1079.56"
         style="fill:none;stroke:#000000;stroke-width:7.97008;stroke-linecap:butt;stroke-linejoin:round;stroke-miterlimit:10;stroke-dasharray:none;stroke-opacity:1"
         transform="matrix(0.13333333,0,0,-0.13333333,-7.36,151.68)"
         id="path37" />
      <g
         aria-label="02&#10;2&#10;x&#10;y"
         transform="matrix(1.3333333,0,0,1.3333333,15.776,126.84147)"
         clip-path="url(#clipPath2)"
         id="g39" />
      <path
         d="m 329.242,846.93 -17.433,48.816 -17.438,-48.816 17.438,19.527"
         style="fill:#000000;fill-opacity:1;fill-rule:nonzero;stroke:none"
         transform="matrix(0.13333333,0,0,-0.13333333,-7.36,151.68)"
         id="path40" />
      <path
         d="M 311.809,566.93 V 866.457"
         style="fill:none;stroke:#000000;stroke-width:9.9626;stroke-linecap:butt;stroke-linejoin:round;stroke-miterlimit:10;stroke-dasharray:none;stroke-opacity:1"
         transform="matrix(0.13333333,0,0,-0.13333333,-7.36,151.68)"
         id="path41" />
      <path
         d="m 414.281,815.75 -17.433,48.816 -17.434,-48.816 17.434,19.523"
         style="fill:#000000;fill-opacity:1;fill-rule:nonzero;stroke:none"
         transform="matrix(0.13333333,0,0,-0.13333333,-7.36,151.68)"
         id="path42" />
      <path
         d="M 396.848,609.445 V 835.273"
         style="fill:none;stroke:#000000;stroke-width:9.9626;stroke-linecap:butt;stroke-linejoin:round;stroke-miterlimit:10;stroke-dasharray:none;stroke-opacity:1"
         transform="matrix(0.13333333,0,0,-0.13333333,-7.36,151.68)"
         id="path43" />
      <path
         d="m 499.32,781.73 -17.433,48.817 -17.434,-48.817 17.434,19.528"
         style="fill:#000000;fill-opacity:1;fill-rule:nonzero;stroke:none"
         transform="matrix(0.13333333,0,0,-0.13333333,-7.36,151.68)"
         id="path44" />
      <path
         d="M 481.887,623.621 V 801.258"
         style="fill:none;stroke:#000000;stroke-width:9.9626;stroke-linecap:butt;stroke-linejoin:round;stroke-miterlimit:10;stroke-dasharray:none;stroke-opacity:1"
         transform="matrix(0.13333333,0,0,-0.13333333,-7.36,151.68)"
         id="path45" />
      <path
         d="m 584.363,722.207 -17.437,48.816 -17.434,-48.816 17.434,19.523"
         style="fill:#000000;fill-opacity:1;fill-rule:nonzero;stroke:none"
         transform="matrix(0.13333333,0,0,-0.13333333,-7.36,151.68)"
         id="path46" />
      <path
         d="M 566.926,609.445 V 741.73"
         style="fill:none;stroke:#000000;stroke-width:9.9626;stroke-linecap:butt;stroke-linejoin:round;stroke-miterlimit:10;stroke-dasharray:none;stroke-opacity:1"
         transform="matrix(0.13333333,0,0,-0.13333333,-7.36,151.68)"
         id="path47" />
      <path
         d="m 669.402,631.496 -17.433,48.817 -17.438,-48.817 17.438,19.527"
         style="fill:#000000;fill-opacity:1;fill-rule:nonzero;stroke:none"
         transform="matrix(0.13333333,0,0,-0.13333333,-7.36,151.68)"
         id="path48" />
      <path
         d="m 651.969,566.93 v 84.093"
         style="fill:none;stroke:#000000;stroke-width:9.9626;stroke-linecap:butt;stroke-linejoin:round;stroke-miterlimit:10;stroke-dasharray:none;stroke-opacity:1"
         transform="matrix(0.13333333,0,0,-0.13333333,-7.36,151.68)"
         id="path49" />
    </g>
  </g>
</svg>
